<svg xmlns="http://www.w3.org/2000/svg" width="32" height="32">
  <rect fill="black" shape-rendering="crispEdges" width="32" height="32" />
  <path fill="white" shape-rendering="geometricPrecision" d="m 8,0 v 18.636424 l 0.00758,0.460887 0.075431,0.876299 0.1436437,0.808447 0.2114951,0.747809 0.2793469,0.687539 0.3399803,0.619329 0.400614,0.566636 0.4681043,0.506 0.5215197,0.445728 0.573852,0.385454 0.627267,0.332401 0.672381,0.271768 0.725075,0.219075 0.770549,0.1588 0.815665,0.105752 0.853921,0.05269 0.438147,0.0076 0.43815,-0.0076 0.853559,-0.04511 0.815665,-0.105742 0.778128,-0.158804 0.733016,-0.219073 0.687178,-0.26455 0.642065,-0.324824 0.589372,-0.385091 0.536317,-0.445731 0.483623,-0.49842 0.415411,-0.566631 0.35514,-0.627269 0.294504,-0.687179 0.219077,-0.747813 0.151221,-0.816024 0.083,-0.883878 V 18.636424 0 h -2.039877 v 18.447669 0.377876 l -0.06027,0.694758 -0.105753,0.649644 -0.151223,0.589368 -0.203916,0.543898 -0.256609,0.483624 -0.302445,0.445729 -0.33998,0.385093 -0.385095,0.34756 -0.430569,0.294508 -0.468466,0.249389 -0.51358,0.203915 -0.543896,0.166023 -0.581792,0.120903 -0.611749,0.07579 -0.649644,0.04511 h -0.695123 l -0.672382,-0.04511 -0.634485,-0.07579 -0.596951,-0.120903 -0.551475,-0.166023 -0.513579,-0.203915 -0.468457,-0.249389 -0.430569,-0.294508 -0.377516,-0.34756 -0.339981,-0.385093 -0.286927,-0.445729 -0.241809,-0.483624 -0.203916,-0.543898 -0.143643,-0.589368 -0.09817,-0.649644 -0.05305,-0.694758 -0.0076,-0.377876 V 0 Z" />
</svg>
