<svg xmlns="http://www.w3.org/2000/svg" width="739.39630" height="240.29393">
  <path fill="white" fill-rule="evenodd" shape-rendering="geometricPrecision" d="m 0,0 v 187.33333 l 0.05512,3.35171 0.548555,6.37272 1.04462,5.87927 1.538058,5.43829 2.031496,5 2.47244,4.50394 2.913388,4.12076 3.404197,3.67978 3.792653,3.24148 4.173229,2.80313 4.56168,2.41733 4.889763,1.97638 5.272964,1.59317 5.603672,1.15485 5.931763,0.76904 6.209976,0.38321 3.186348,0.0551 3.186355,-0.0551 6.207344,-0.3281 5.931763,-0.76901 5.658786,-1.15488 5.33072,-1.59317 4.99737,-1.92388 4.66929,-2.36222 4.28609,-2.8005 3.90026,-3.24149 3.51706,-3.62466 3.02099,-4.12073 2.58269,-4.56168 2.14172,-4.99737 1.59319,-5.43833 1.09973,-5.93438 0.60367,-6.42783 V 187.33333 0 h -14.83464 v 185.96065 2.74802 l -0.43832,5.05249 -0.76903,4.72442 -1.09974,4.28607 -1.48294,3.95539 -1.86614,3.51706 -2.19948,3.24148 -2.47243,2.80051 -2.80053,2.52756 -3.13123,2.14175 -3.40683,1.81363 -3.73491,1.48294 -3.955377,1.20737 -4.230973,0.87924 -4.448814,0.55118 -4.724411,0.32809 H 55.70604 l -4.889763,-0.32809 -4.614174,-0.55118 -4.341209,-0.87924 -4.010498,-1.20737 -3.734909,-1.48294 -3.406826,-1.81363 -3.131233,-2.14175 -2.745407,-2.52756 -2.472439,-2.80051 -2.086617,-3.24148 -1.758529,-3.51706 -1.482937,-3.95539 -1.044621,-4.28607 -0.713913,-4.72442 -0.385826,-5.05249 -0.05512,-2.74802 V 0 Z m 471.90814,206.72703 -1.15222,0.65878 -2.96851,1.26511 -5.21786,1.53805 -3.7349,0.7139 -3.2966,0.65882 -4.45144,1.09973 -2.58005,0.93176 -2.19946,1.26508 -1.70081,1.5932 -1.20996,2.03149 -0.65881,2.58267 -0.0551,1.48294 0.0551,1.42783 0.49343,2.30707 0.98951,1.86877 1.37271,1.37271 1.64828,1.04462 1.92389,0.7139 3.18637,0.54855 2.19684,0.0551 2.19684,-0.0551 3.84778,-0.76901 3.29397,-1.42783 2.69291,-1.86615 2.14172,-2.25458 1.5932,-2.52493 1.04462,-2.63782 0.54855,-2.63778 v -1.26245 z m -13.07348,-27.5223 -2.74805,0.11023 -5,0.71393 -4.22833,1.42782 -3.51706,2.0315 -2.80054,2.63778 -2.14434,3.07612 -1.48294,3.51705 -0.76905,3.84516 -0.11023,2.03149 h 8.62729 l 0.10764,-1.53805 0.55118,-2.85565 0.93438,-2.36222 1.31757,-1.979 1.81366,-1.53806 2.19684,-1.15222 2.63778,-0.76904 3.021,-0.38581 1.70343,-0.0551 1.53806,0.0551 2.74539,0.33069 2.36221,0.65882 2.03412,0.9895 1.64831,1.31756 1.26246,1.53806 0.82415,1.86877 0.43833,2.19687 v 1.15223 1.09973 l -0.54859,1.86877 -0.98947,1.48294 -1.37271,1.09711 -2.85565,1.20996 -5,0.9895 -2.96588,0.43833 -5.22046,0.87927 -6.92127,1.7034 -3.95538,1.48294 -3.35171,2.03149 -2.58268,2.58271 -1.42782,2.41729 -0.7139,1.81366 -0.65881,3.18634 -0.11023,2.41733 0.11023,2.03149 0.71392,3.51706 1.48295,3.021 2.0866,2.47244 2.58268,1.97638 3.13122,1.48557 3.46195,0.93176 3.84515,0.49606 1.979,0.0551 1.81104,-0.0551 3.29657,-0.38583 2.9685,-0.76901 2.63517,-1.042 2.36221,-1.32022 2.03412,-1.42782 2.63519,-2.41733 1.32019,-1.7034 h 0.11023 l 0.21787,1.09973 0.55117,1.92127 0.76902,1.59317 0.93176,1.32022 1.26511,1.04199 1.42782,0.76901 1.7034,0.55121 1.92389,0.22046 1.09711,0.0525 1.64828,-0.0525 2.36222,-0.49606 0.87927,-0.3281 v -6.53805 h -0.33072 l -0.93176,0.16537 -1.53806,0.0525 -1.15484,-0.21786 -0.93439,-0.55118 -0.7139,-0.76901 -0.43832,-1.09714 -0.38584,-2.03412 v -1.64829 -27.30185 l -0.11023,-2.47241 -0.76904,-4.2861 -1.53806,-3.51443 -2.25195,-2.80317 -2.80316,-2.14172 -3.40421,-1.48294 -3.79,-0.9895 -4.23099,-0.43833 -2.30707,-0.0551 z m 98.55639,0.43833 -1.4278,0.0551 -2.69293,0.43833 -2.52752,0.76904 -2.36225,1.09973 -2.14172,1.42783 -1.97901,1.59317 -2.58001,2.80313 -1.37537,2.03149 h -0.21783 v -9.50393 h -8.95539 v 57.29922 h 8.95539 v -31.80841 l 0.0551,-1.97638 0.71393,-3.6824 1.31757,-3.18634 1.81366,-2.74542 2.30706,-2.25196 2.63782,-1.70343 2.96588,-1.20996 3.18634,-0.60367 1.64832,-0.0551 h 1.20733 l 1.81366,0.27557 0.98951,0.27298 h 0.32806 v -8.62469 l -0.82416,-0.32807 -1.70337,-0.33072 z m 33.45675,6.3176 -1.92389,0.11023 -3.56958,0.7139 -3.07611,1.31759 -2.63776,1.97901 -2.1969,2.47244 -1.75848,2.91077 -1.31763,3.35168 -0.93438,3.6247 -0.27558,1.92385 h 34.44623 l -0.1654,-2.0866 -0.65876,-3.84775 -1.20996,-3.40421 -1.64831,-2.91339 -2.14173,-2.36221 -2.52759,-1.81101 -3.02099,-1.2651 -3.46192,-0.65879 z m 0,-7.08665 -1.48297,0.0551 -2.91339,0.27557 -2.80048,0.60367 -2.63782,0.87927 -2.47241,1.15222 -2.30713,1.43045 -2.19684,1.59317 -1.92388,1.86615 -2.6352,3.13123 -2.8031,4.77954 -1.86615,5.43832 -0.9895,5.87927 -0.11023,3.07612 0.11023,3.07611 0.93439,5.87927 1.81103,5.43832 2.74799,4.83463 2.5827,3.07611 1.97638,1.86877 2.19684,1.59317 2.36218,1.42783 2.5827,1.15222 2.74805,0.87927 2.91077,0.6063 3.13122,0.27298 1.64826,0.0551 2.36224,-0.0551 4.50653,-0.65879 4.06299,-1.26248 3.57221,-1.86877 3.18634,-2.47245 2.63781,-3.02099 2.14173,-3.57218 1.53802,-4.1181 0.54859,-2.25458 h -8.73493 l -0.38318,1.43042 -1.09973,2.52494 -1.37274,2.19949 -1.70337,1.86615 -2.03149,1.48294 -2.30976,1.09973 -2.58001,0.7139 -2.80317,0.38583 -1.53808,0.0551 -2.14172,-0.11023 -3.84516,-0.76904 -3.29657,-1.53806 -2.85827,-2.14435 -2.30707,-2.74542 -1.86615,-3.29657 -1.26508,-3.67981 -0.76904,-4.06561 -0.16535,-2.19684 h 44.33594 l -0.11023,-3.46195 -0.82415,-6.53805 -1.70337,-5.87927 -1.86878,-3.90027 -1.42785,-2.36218 -1.70337,-2.14176 -1.86615,-1.86874 -2.03412,-1.70081 -2.25202,-1.43045 -2.47241,-1.15222 -2.69031,-0.87927 -2.8031,-0.60367 -3.02105,-0.27557 -1.64826,-0.0551 z m -214.36486,21.86615 v 27.90552 h 24.94226 l 2.08661,-0.0525 3.6824,-0.49607 3.07614,-1.04461 2.52756,-1.48294 1.04199,-0.87928 0.82413,-0.93176 1.32022,-2.03412 0.87665,-2.30706 0.49606,-2.52759 0.0551,-1.4278 -0.0551,-1.81366 -0.65881,-3.24145 -1.20996,-2.74543 -1.7034,-2.30709 -2.25198,-1.81363 -2.63779,-1.37271 -3.021,-0.93439 -3.2966,-0.44095 -1.811,-0.0525 z m 0,-33.73227 v 25.27032 h 24.17322 l 3.24148,-0.43832 2.85566,-0.87924 2.41729,-1.26511 1.97901,-1.64566 1.53805,-2.03412 1.04199,-2.41732 0.49607,-2.74543 0.0551,-1.53805 -0.0551,-1.37531 -0.44092,-2.5827 -0.93439,-2.25195 -1.42782,-1.97638 -1.75855,-1.59317 -2.25195,-1.20999 -2.58005,-0.82413 -2.9685,-0.43833 -1.64832,-0.0551 z m -9.94226,-87.84516 v 79.22046 79.27298 h 35.32284 l 3.18635,-0.11023 5.71392,-0.98688 3.79001,-1.43045 2.3071,-1.15222 2.14435,-1.42782 1.86615,-1.59318 0.82413,-0.87927 1.32022,-1.48294 2.14172,-3.35171 1.48294,-3.84516 0.76904,-4.23095 0.0551,-2.25196 -0.0551,-1.979 -0.60366,-3.56958 -1.21,-3.18634 -1.70077,-2.80316 -2.14435,-2.4173 -2.52759,-1.97638 -2.91073,-1.5932 -3.13126,-1.20996 -1.64828,-0.43833 v -0.33068 l 1.42782,-0.49344 2.6929,-1.20999 2.3071,-1.48294 2.0315,-1.75852 1.64828,-2.03149 1.26511,-2.41733 0.87927,-2.63782 0.43829,-2.96585 0.0552,-1.64831 -0.0552,-2.08661 -0.71389,-3.79004 -1.26249,-3.4068 -1.92386,-2.91077 -1.15225,-1.32022 -0.82412,-0.82413 -1.86878,-1.53808 -2.03412,-1.31757 -2.19687,-1.04462 -3.56955,-1.20736 -5.49343,-0.87924 -3.07874,-0.0551 H 375.49344 V 93.22839 h 0.22046 l 0.9895,2.96588 2.5827,6.97638 21.69815,55.21259 h 7.63779 l 21.75329,-55.21259 2.47245,-6.86615 1.04461,-3.07611 h 0.22046 v 65.15485 h 9.55905 V 79.16278 h -12.96588 l -25.49081,65.81628 h -0.22046 L 379.2861,79.16273 Z m 165.90812,21.26249 -1.4278,0.0551 -2.69293,0.38318 -2.5249,0.76905 -2.36224,1.15484 -2.14435,1.37271 -1.97638,1.64829 -2.58264,2.74542 -1.37274,2.08923 h -0.22046 v -9.55905 h -8.95539 v 57.2992 h 8.95539 v -31.80838 l 0.11023,-1.97901 0.65881,-3.62466 1.31757,-3.18637 1.81366,-2.74802 2.30706,-2.25198 2.63782,-1.75852 2.96588,-1.20736 3.18634,-0.60367 1.64832,-0.0551 1.20996,0.0551 1.86615,0.21786 0.93439,0.27558 h 0.33068 v -8.62467 l -0.82415,-0.2756 -1.70337,-0.38318 z m 163.05254,0.65878 v 7.85565 h 30.05249 v 0.33069 l -31.91864,42.02625 v 7.0866 h 45.65088 v -8.18634 h -34.11548 v -0.32809 l 32.90814,-43.45666 v -5.3281 z m 16.31756,85.26246 -2.25195,0.0551 -4.0105,0.87665 -3.46198,1.75855 -2.91076,2.41733 -2.30707,3.07611 -1.75855,3.62729 -1.15484,4.06561 -0.6037,4.44882 -0.0551,2.36221 0.0551,2.36219 0.6037,4.45144 1.15484,4.06302 1.75855,3.57218 2.30707,3.07611 2.91076,2.41732 3.46198,1.7034 4.0105,0.87928 2.25195,0.11023 2.25195,-0.11023 4.0105,-0.87928 3.4068,-1.7034 2.91077,-2.41732 2.30713,-3.07611 1.70337,-3.57218 1.1549,-4.06302 0.60364,-4.45144 0.0551,-2.36219 -0.0551,-2.36221 -0.60364,-4.44882 -1.1549,-4.06561 -1.70337,-3.62729 -2.30713,-3.07611 -2.91077,-2.41733 -3.4068,-1.75855 -4.0105,-0.87665 z m 0,-7.47245 -1.5932,0.0551 -3.07611,0.27557 -2.85828,0.60367 -2.74536,0.93438 -2.52759,1.09711 -2.36218,1.43045 -2.1969,1.59317 -1.979,1.86615 -2.63513,3.13123 -2.80317,4.77954 -1.86877,5.43832 -0.98688,5.87927 -0.11023,3.07612 0.11023,3.07611 0.98688,5.93438 1.86877,5.38321 2.80317,4.83463 2.63513,3.07611 1.979,1.86877 2.1969,1.64829 2.36218,1.37271 2.52759,1.15222 2.74536,0.87927 2.85828,0.6063 3.07611,0.27298 1.5932,0.0551 1.59314,-0.0551 3.07611,-0.27298 2.85828,-0.6063 2.74542,-0.87927 2.52759,-1.15222 2.36218,-1.37271 2.19684,-1.64829 1.979,-1.86877 2.6352,-3.07611 2.69287,-4.83463 1.86877,-5.38321 0.98688,-5.93438 0.0551,-3.07611 -0.0551,-3.07612 -0.98688,-5.87927 -1.86877,-5.43832 -2.69287,-4.77954 -2.6352,-3.13123 -1.979,-1.86615 -2.19684,-1.59317 -2.36218,-1.43045 -2.52759,-1.09711 -2.74542,-0.93438 -2.85828,-0.60367 -3.07611,-0.27557 z m -44.99474,-72.13123 -1.97638,0.0551 -3.51709,0.71393 -3.13122,1.37268 -2.63514,1.97901 -2.19952,2.46982 -1.75586,2.91339 -1.32025,3.2966 -0.93439,3.67978 -0.27295,1.92389 h 34.44623 l -0.11029,-2.08924 -0.71387,-3.90027 -1.21002,-3.35171 -1.64825,-2.91077 -2.08661,-2.36218 -2.58271,-1.86878 -3.02099,-1.20733 -3.46192,-0.65882 z m -18.40161,79.93176 -2.03412,0.0551 -3.56952,0.87928 -3.07873,1.64828 -2.52497,2.41733 -2.08923,3.021 -1.53802,3.62728 -1.042,4.06299 -0.49609,4.50656 -0.0551,2.36222 0.0551,2.41733 0.49609,4.50393 1.042,4.06562 1.53802,3.57217 2.08923,3.021 2.58008,2.36221 3.07874,1.64828 3.62463,0.82416 2.03156,0.11023 2.30969,-0.11023 4.1181,-0.82416 3.46192,-1.64828 2.80316,-2.36221 2.19684,-3.021 1.64831,-3.57217 1.04199,-4.06562 0.55121,-4.50393 0.0551,-2.41733 -0.0551,-2.47244 -0.60632,-4.55906 -1.20734,-4.12072 -1.75854,-3.57218 -2.30707,-3.02099 -2.85565,-2.3071 -3.4068,-1.64829 -3.95539,-0.82415 z m 16.86355,-87.01838 -2.91077,0.32809 -2.80047,0.6063 -2.63782,0.87665 -2.47247,1.15484 -2.30707,1.37271 -2.14172,1.64829 -1.97901,1.81366 -2.63782,3.13122 -2.74536,4.83466 -1.92389,5.38318 -0.9895,5.87927 -0.1076,3.13123 0.1076,3.02099 0.87927,5.71393 1.75849,5.32806 2.5827,4.72443 2.52753,3.07611 1.86615,1.86878 2.08923,1.64828 2.25202,1.37271 2.47241,1.20996 2.63781,0.93176 2.80054,0.66141 2.96588,0.43833 1.59314,0.0551 v 28.56696 h -0.27295 l -0.66143,-0.98951 -1.64563,-1.92126 -1.81366,-1.70343 -2.03412,-1.48294 -2.30713,-1.26508 -2.47241,-0.98687 -2.6352,-0.71656 -2.85827,-0.32806 -1.48291,-0.0551 -2.63782,0.11023 -4.99738,1.042 -4.50653,1.979 -4.0105,2.96588 -3.40423,3.84516 -2.69287,4.72439 -1.86878,5.60367 -0.98687,6.37271 -0.0551,3.51706 0.0551,3.40683 0.87927,6.26245 1.75592,5.49344 2.52753,4.77954 2.41729,3.021 1.81366,1.7034 2.0315,1.53805 2.14434,1.26248 2.36225,1.04462 2.47241,0.82416 2.63519,0.54855 2.80317,0.27557 h 1.48291 l 1.48297,-0.0551 2.80047,-0.27557 2.52759,-0.54856 2.36218,-0.82416 2.14441,-1.0971 1.97632,-1.37534 2.74805,-2.47244 1.64831,-1.97638 h 0.27295 v 6.97638 h 8.95539 v -78.7244 l 1.5932,-0.49343 3.02099,-1.21 2.74799,-1.59317 2.47247,-1.97638 2.14172,-2.30709 1.81366,-2.63779 1.48291,-2.96588 1.15229,-3.29657 0.44091,-1.81366 h -8.79003 l -0.38581,1.42782 -1.0971,2.58268 -1.37275,2.19683 -1.70337,1.81366 -2.03411,1.48294 -2.25202,1.09974 -2.58264,0.76904 -2.85565,0.38318 h -1.53809 l -2.14435,-0.0551 -3.84515,-0.82412 -3.29657,-1.48295 -2.85565,-2.19686 -2.30707,-2.7454 -1.81366,-3.24148 -1.31756,-3.73752 -0.76905,-4.06561 -0.16534,-2.14176 h 44.33331 l -0.1076,-3.51443 -0.82416,-6.53806 -1.70337,-5.87924 -1.81366,-3.84515 -1.48297,-2.36222 -1.64826,-2.14172 -1.92388,-1.92389 -2.0315,-1.64828 -2.25201,-1.42783 -2.47242,-1.15485 -2.63781,-0.87664 -2.85565,-0.6063 -3.02363,-0.32809 z m -51.36484,0.11024 -2.85565,0.32809 -2.69293,0.60367 -2.4173,0.87928 -2.25195,1.15484 -2.03412,1.42783 -2.80054,2.47244 -1.53809,1.97638 h -0.27557 V 101.084 h -8.95538 v 57.29919 h 8.95538 v -35.21521 l 0.0551,-1.75851 0.6037,-3.24149 1.15485,-2.91077 1.64832,-2.47244 2.0866,-2.08661 2.52753,-1.64828 2.85565,-1.09973 3.13123,-0.6037 1.70343,-0.0551 1.48291,0.0551 2.74805,0.38583 2.36218,0.76904 2.03149,1.09711 1.70343,1.48294 1.26508,1.86878 0.87927,2.14172 0.43836,2.47244 0.0551,1.37271 v 39.44617 h 8.95538 v -40.21521 l -0.0551,-2.19684 -0.65881,-3.95538 -1.3202,-3.40683 -1.92126,-2.91077 -2.47247,-2.3071 -3.021,-1.75851 -3.57214,-1.20734 -4.0105,-0.60632 -2.25201,-0.0525 z M 545.084,83.0105 v 18.0735 h -8.29395 v 7.30707 h 8.29395 v 39.22311 l 0.0551,1.48294 0.4961,2.58268 0.87927,2.14434 1.31757,1.70081 1.70343,1.32019 2.03149,0.93439 2.25195,0.60367 2.52753,0.32809 h 1.37537 l 1.97638,-0.0551 3.62463,-0.38321 1.5932,-0.33069 v -7.74543 h -0.32806 l -0.87928,0.2756 -2.52758,0.43832 -1.31757,0.0551 -1.37274,-0.0551 -2.08923,-0.54858 -1.48291,-1.26508 -0.76905,-2.03149 -0.0551,-1.42783 v -37.24673 h 11.04199 V 101.084 H 554.0945 V 83.0105 Z m 25.60106,18.0735 v 57.29919 h 9.0105 V 101.084 Z m -81.91076,26.37008 -1.20734,0.7139 -2.91342,1.20733 -5.27295,1.5932 -3.67981,0.7139 -3.29657,0.6063 -4.45144,1.0971 -2.58005,0.9895 -2.19949,1.20737 -1.7034,1.59317 -1.26249,2.03412 -0.60366,2.58267 -0.11023,1.53806 0.0551,1.37271 0.54856,2.3071 0.9895,1.86874 1.37271,1.42783 1.64828,1.04461 1.92389,0.65882 3.13123,0.54855 2.19687,0.0551 2.19684,-0.0551 3.90026,-0.76904 3.2966,-1.37268 2.69291,-1.86878 2.14172,-2.3071 1.59317,-2.47244 1.04462,-2.63516 0.49347,-2.63779 0.0551,-1.2651 z m -13.07352,-27.46982 -2.80313,0.0551 -4.94489,0.76902 -4.22836,1.42782 -3.51706,2.03412 -2.85562,2.58267 -2.14438,3.07615 -1.42779,3.51443 -0.76905,3.90024 -0.16534,2.03412 h 8.67978 l 0.11023,-1.59317 0.49606,-2.80313 0.93176,-2.36222 1.37534,-1.97638 1.75589,-1.59317 2.25461,-1.15487 2.58004,-0.76902 3.07874,-0.32809 1.70081,-0.0551 h 1.53805 l 2.6929,0.38321 2.41733,0.65879 2.03149,0.9895 1.59318,1.2651 1.26507,1.59317 0.87927,1.86615 0.38324,2.14435 0.0551,1.20734 -0.0551,1.09976 -0.49347,1.86612 -0.9895,1.43045 -1.42782,1.09711 -2.80314,1.20999 -4.99737,1.04199 -2.96851,0.44095 -5.27298,0.82413 -6.86612,1.70343 -3.95538,1.53805 -3.35171,1.97638 -2.63779,2.58267 -1.42783,2.41733 -0.71392,1.86878 -0.65879,3.13122 -0.0551,2.46982 0.0551,1.979 0.76905,3.51706 1.48294,3.021 2.03149,2.47244 2.63779,1.97638 3.07611,1.48294 3.51706,0.9895 3.79004,0.49344 h 3.84512 l 3.2966,-0.43832 2.96588,-0.76904 2.63779,-1.04462 2.36221,-1.26245 2.03149,-1.48294 2.58268,-2.41733 1.3753,-1.64829 h 0.10767 l 0.16534,1.04462 0.54853,1.92124 0.77166,1.64831 0.98688,1.31757 1.20996,1.04461 1.48297,0.76905 1.70337,0.49344 1.92127,0.2756 h 1.09973 l 1.5932,-0.0551 2.4173,-0.49343 0.82415,-0.33069 v -6.53806 h -0.33069 l -0.87927,0.16535 -1.53802,0.11023 -1.2074,-0.22046 -0.93439,-0.54856 -0.65875,-0.82415 -0.44098,-1.04462 -0.38318,-2.0315 -0.0551,-1.7034 v -27.24936 l -0.0551,-2.46981 -0.82415,-4.34122 -1.53809,-3.46195 -2.19684,-2.8005 -2.85828,-2.14173 -3.34906,-1.54068 -3.84777,-0.93176 -4.22834,-0.44095 -2.25198,-0.0551 z m 43.67452,79.6588 -1.43042,0.0551 -2.69031,0.43833 -2.52752,0.76904 -2.36225,1.09973 -2.14172,1.42783 -1.97901,1.59317 -2.58264,2.80313 -1.37274,2.03149 h -0.22046 v -9.50393 h -8.95276 v 57.29922 h 8.95276 v -31.80841 l 0.0551,-1.97638 0.71393,-3.6824 1.32019,-3.18634 1.81366,-2.74542 2.30706,-2.25196 2.6352,-1.70343 2.9685,-1.20996 3.18634,-0.60367 1.64832,-0.0551 h 1.20733 l 1.81366,0.27557 0.98688,0.27298 h 0.33069 v -8.62469 l -0.82416,-0.32807 -1.70337,-0.33072 z m -337.5879,-59.05775 -3.40681,0.0551 -6.26249,0.76905 -5.76902,1.48291 -5.27297,2.08926 -4.72441,2.63779 -4.28609,3.18634 -3.79002,3.62469 -3.3517,3.95536 -1.53806,2.14175 h -0.44094 V 123.00264 H 129.2126 v 114.65353 h 13.73229 v -72.73489 l 0.0551,-1.75854 0.38583,-3.40683 0.7139,-3.24146 1.04463,-3.13125 1.31759,-2.96585 1.64828,-2.74805 1.92389,-2.63516 2.19685,-2.36222 2.3622,-2.19946 2.6378,-1.92126 2.85564,-1.70343 3.021,-1.4278 3.18635,-1.20999 3.29659,-0.93439 3.46194,-0.60367 3.56955,-0.32809 h 1.81366 l 2.96588,0.0551 5.49344,0.76905 4.83464,1.53805 4.12073,2.3071 2.58269,2.25195 1.48294,1.81366 1.31758,1.92127 1.09973,2.19684 1.26247,3.62728 0.93438,5.6037 0.0551,3.18634 v 80.04199 h 13.73491 v -81.36221 -2.14172 l -0.38582,-4.06561 -0.6588,-3.84516 -1.04462,-3.56955 -1.31758,-3.35171 -1.59318,-3.021 -1.92388,-2.80313 -2.14174,-2.52756 -2.47244,-2.30709 -2.63516,-1.97638 -2.91339,-1.7034 -3.13124,-1.42783 -3.29659,-1.20999 -3.51443,-0.82413 -3.68242,-0.60367 -3.84514,-0.2756 -1.97638,-0.0551 z M 330.72177,79.16273 v 19.50394 h 13.7323 V 79.16273 Z m -25.93173,96.41471 -1.42783,0.7139 -3.07611,1.32022 -5.16537,1.7034 -7.69028,1.81103 -8.18637,1.37271 -4.17322,0.6063 -3.57217,0.49344 -6.75855,1.09973 -6.15222,1.42782 -5.43832,1.97638 -3.51706,1.92389 -2.0315,1.53806 -1.81362,1.75851 -1.53809,2.0315 -1.31757,2.30709 -0.93438,2.63779 -0.65879,2.96588 -0.38583,3.2966 v 1.81363 1.48294 l 0.27557,2.74805 0.54859,2.47244 0.76901,2.25196 0.9895,2.03149 1.20996,1.81366 2.19687,2.36221 3.45932,2.36218 4.12073,1.70344 4.50656,1.0971 4.88977,0.49607 h 4.83203 l 4.45142,-0.38584 4.12076,-0.76901 3.84512,-1.09711 3.56955,-1.37533 3.2966,-1.70343 3.021,-1.92124 2.6929,-2.19687 2.47244,-2.36221 2.08664,-2.52756 1.86874,-2.63778 1.48294,-2.80051 1.26511,-2.85828 0.93176,-2.96588 0.6063,-2.96588 0.27294,-2.96851 0.0551,-1.48294 z m -27.68768,-54.99213 -2.74802,0.0551 -5.21786,0.33072 -4.83463,0.65879 -4.44882,0.93438 -4.17587,1.26246 -3.84512,1.5932 -3.46195,1.86874 -3.13126,2.08661 -2.85562,2.41733 -2.47244,2.63781 -2.19949,2.91074 -1.86612,3.07614 -1.53806,3.35169 -1.20999,3.57217 -0.93439,3.79004 -0.60366,3.95538 -0.16535,2.08661 h 13.51444 l 0.33068,-3.13122 0.87928,-4.22837 0.87927,-2.63778 1.15222,-2.36222 1.32022,-2.19684 1.53806,-1.979 1.75854,-1.81366 2.0315,-1.59317 2.25195,-1.37271 3.73492,-1.75851 5.82413,-1.59318 6.70343,-0.76904 3.79001,-0.0551 3.24149,0.0551 5.87924,0.71393 5.10763,1.43042 4.34119,2.14175 2.63519,2.08661 1.53806,1.64829 1.32019,1.75854 1.15225,1.97901 1.26508,3.29394 0.93438,5.11023 0.0525,2.85565 v 2.1995 l -0.0525,2.08661 -0.82415,3.40683 -1.20997,2.0866 -1.04461,1.15485 -2.0315,1.53806 -3.67981,1.53805 -4.77951,1.26248 -9.17584,1.48294 -8.02099,0.93439 -4.83466,0.60367 -9.17325,1.53805 -8.46191,2.03412 -5.71131,2.14173 -3.51706,1.64831 -3.24145,1.92386 -2.85565,2.25198 -2.58267,2.58268 -2.19687,2.91076 -1.75852,3.29657 -1.42782,3.73493 -0.93439,4.12073 -0.49606,4.61416 v 2.52756 1.97638 l 0.38583,3.73755 0.71391,3.51443 1.04462,3.24146 1.42783,2.9685 1.70341,2.74543 1.97638,2.47244 2.25458,2.25195 2.52493,2.03412 2.74805,1.70081 2.96588,1.54068 3.18634,1.20733 3.40683,1.04462 3.51443,0.71393 5.65879,0.71389 3.90026,0.0551 4.06562,-0.0551 7.3071,-0.93438 6.42782,-1.7034 5.60367,-2.36222 4.88977,-2.85565 4.17584,-3.18634 3.51444,-3.40683 2.91339,-3.51706 1.26245,-1.70077 h 0.65881 v 2.41733 l 0.16535,2.03149 0.76901,3.62466 1.26248,3.02362 1.7034,2.52494 2.14438,2.03412 2.58005,1.48294 3.02362,0.93438 3.34909,0.49344 1.86874,0.0551 1.53806,-0.0551 2.69293,-0.27298 3.24146,-0.71389 1.59317,-0.66141 v 0.16534 h 13.7323 V 123.00264 h -13.7323 v 104.4357 h -0.44092 l -2.74542,0.65878 -2.36222,0.22046 -0.87924,-0.0551 -1.64832,-0.33069 -1.3753,-0.6037 -1.20737,-0.93439 -0.93438,-1.20734 -0.7139,-1.48294 -0.49344,-1.86877 -0.27561,-2.19684 v -1.26511 -62.29657 l -0.0551,-2.30709 -0.32806,-4.39634 -0.71656,-4.01049 -1.04199,-3.67978 -1.37533,-3.40683 -1.70078,-3.021 -2.03412,-2.74801 -2.36221,-2.47245 -2.63779,-2.14175 -2.91076,-1.86612 -3.18635,-1.59317 -3.46194,-1.26511 -3.73492,-1.04461 -4.0105,-0.76905 -6.37271,-0.65878 z m 299.5722,-42.57481 -5.11023,14.11812 h 7.58264 l 8.51447,-14.11812 z" />
</svg>
